<svg width="41" height="26" viewBox="0 0 41 26" fill="none" xmlns="http://www.w3.org/2000/svg">
<path d="M39.5 2.608C31.2474 -4.04294 12.0112 11.5425 8.81818 20.1081C9.04545 14.6081 7.8 3.408 1 2.608" stroke="black" stroke-width="2" stroke-linecap="round" stroke-linejoin="round"/>
<path d="M15.3492 9.84878C15.7685 9.48935 16.3998 9.53791 16.7593 9.95724C17.1187 10.3766 17.0701 11.0079 16.6508 11.3673L15.3492 9.84878ZM16.7727 20.3734L17.0087 21.3451L16.9797 21.3522L16.9502 21.3575L16.7727 20.3734ZM17.3896 14.6019C16.8407 14.5409 16.4451 14.0465 16.5061 13.4976C16.5671 12.9487 17.0615 12.5531 17.6104 12.6141L17.3896 14.6019ZM16.6508 11.3673C15.8648 12.041 15.0195 13.0391 14.3226 14.1436C13.6217 15.2546 13.1177 16.3992 12.9451 17.3548C12.7692 18.3293 12.9677 18.8581 13.2971 19.132C13.6807 19.4509 14.6012 19.7489 16.5952 19.3893L16.9502 21.3575C14.7938 21.7464 13.1049 21.573 12.0186 20.67C10.8781 19.722 10.746 18.2784 10.977 16.9994C11.2113 15.7015 11.8518 14.3117 12.6311 13.0764C13.4145 11.8347 14.3852 10.6751 15.3492 9.84878L16.6508 11.3673ZM16.5367 19.4016C17.5177 19.1634 18.7378 18.7187 19.8368 18.1672C20.9666 17.6001 21.8303 16.9881 22.2298 16.4707C22.4236 16.2198 22.4233 16.1008 22.4228 16.0931C22.4228 16.093 22.4239 16.0824 22.4054 16.0519C22.3838 16.0161 22.3299 15.9456 22.2062 15.8508C21.9485 15.6531 21.4718 15.4136 20.6596 15.1843C19.8586 14.9581 18.7877 14.7572 17.3896 14.6019L17.6104 12.6141C19.076 12.777 20.2625 12.994 21.203 13.2595C22.1323 13.5219 22.8812 13.848 23.4234 14.2638C23.9825 14.6926 24.3793 15.2678 24.4196 15.9799C24.4579 16.6556 24.1609 17.2423 23.8128 17.6931C23.1285 18.5793 21.9276 19.3556 20.7339 19.9547C19.5093 20.5693 18.147 21.0686 17.0087 21.3451L16.5367 19.4016Z" fill="black"/>
<circle cx="39.366" cy="20.4741" r="1" transform="rotate(-30 39.366 20.4741)" fill="#5ACF89"/>
<path d="M36.5409 20.108C36.5409 20.108 35.8932 19.358 35.4009 19.358C34.9086 19.358 34.0925 20.108 33.691 20.108C33.2894 20.108 33.0044 18.858 31.9163 18.608C30.8281 18.358 30.5561 20.108 30.2711 20.108C29.9861 20.108 28.3798 18.108 27.4212 18.108C26.4626 18.108 26.631 20.108 26.2812 20.108C25.9315 20.108 24.5 18.108 24.5 18.108" stroke="black" stroke-linecap="round" stroke-linejoin="round"/>
</svg>
